<svg width="204" height="208" viewBox="0 0 204 208" fill="none" xmlns="http://www.w3.org/2000/svg">
<path fill-rule="evenodd" clip-rule="evenodd" d="M66.5466 56.5114V13.7435L96.5578 -16V53.7402C96.5561 59.2103 95.329 64.6117 92.965 69.5546C90.601 74.4975 87.1591 78.8586 82.8878 82.3229C78.6165 85.7872 73.6224 88.2684 68.2659 89.5874C62.9095 90.9063 57.3244 91.03 51.9138 89.9497L0 79.6965L25.4442 54.4792L60.5816 61.407C61.3082 61.5427 62.0561 61.5181 62.772 61.3349C63.4879 61.1516 64.1543 60.8144 64.7237 60.347C65.2932 59.8796 65.7518 59.2936 66.0668 58.6306C66.3819 57.9677 66.5457 57.2442 66.5466 56.5114ZM110.198 67.8859C108.326 63.4006 107.365 58.5938 107.369 53.7402V-16L137.287 13.7435V56.5114C137.302 57.2483 137.478 57.9733 137.804 58.6359C138.129 59.2986 138.597 59.8831 139.173 60.3489C139.749 60.8146 140.421 61.1506 141.142 61.3333C141.862 61.516 142.614 61.5412 143.345 61.407L178.483 54.4792L203.927 79.6965L152.013 89.9497C145.988 91.1585 139.754 90.8719 133.868 89.1152C127.981 87.3585 122.624 84.1864 118.274 79.8812C114.813 76.4473 112.069 72.3713 110.198 67.8859ZM51.9138 102.143L0 112.396L25.4442 137.613L60.5816 130.685C61.3082 130.55 62.0561 130.574 62.772 130.758C63.4879 130.941 64.1543 131.278 64.7237 131.745C65.2932 132.213 65.7518 132.799 66.0668 133.462C66.3819 134.125 66.5457 134.848 66.5466 135.581V178.349L96.5578 208.092V138.352C96.5578 128.553 92.63 119.155 85.6384 112.226C78.6469 105.296 69.1643 101.404 59.2768 101.404C56.8354 101.421 54.4011 101.668 52.007 102.143H51.9138ZM110.198 124.206C112.069 119.721 114.813 115.645 118.274 112.211C121.739 108.781 125.852 106.061 130.377 104.207C134.903 102.352 139.753 101.4 144.65 101.404C147.123 101.421 149.588 101.668 152.013 102.143L203.927 112.396L178.483 137.613L143.345 130.685C142.612 130.534 141.854 130.547 141.127 130.723C140.399 130.899 139.72 131.234 139.14 131.703C138.559 132.172 138.092 132.764 137.771 133.435C137.451 134.105 137.285 134.839 137.287 135.581V178.349L107.369 208.092V138.352C107.365 133.499 108.326 128.692 110.198 124.206Z" fill="#F6F6F7"/>
</svg>
